G04 #@! TF.GenerationSoftware,KiCad,Pcbnew,(5.1.7)-1*
G04 #@! TF.CreationDate,2020-10-06T18:52:08+02:00*
G04 #@! TF.ProjectId,Timer-PCB,54696d65-722d-4504-9342-2e6b69636164,rev?*
G04 #@! TF.SameCoordinates,Original*
G04 #@! TF.FileFunction,Legend,Top*
G04 #@! TF.FilePolarity,Positive*
%FSLAX46Y46*%
G04 Gerber Fmt 4.6, Leading zero omitted, Abs format (unit mm)*
G04 Created by KiCad (PCBNEW (5.1.7)-1) date 2020-10-06 18:52:08*
%MOMM*%
%LPD*%
G01*
G04 APERTURE LIST*
%ADD10C,0.300000*%
%ADD11C,0.120000*%
%ADD12C,0.100000*%
%ADD13C,0.150000*%
G04 APERTURE END LIST*
D10*
X68357142Y-71928571D02*
X69214285Y-71928571D01*
X68785714Y-73428571D02*
X68785714Y-71928571D01*
X69714285Y-73428571D02*
X69714285Y-72428571D01*
X69714285Y-71928571D02*
X69642857Y-72000000D01*
X69714285Y-72071428D01*
X69785714Y-72000000D01*
X69714285Y-71928571D01*
X69714285Y-72071428D01*
X70428571Y-73428571D02*
X70428571Y-72428571D01*
X70428571Y-72571428D02*
X70500000Y-72500000D01*
X70642857Y-72428571D01*
X70857142Y-72428571D01*
X71000000Y-72500000D01*
X71071428Y-72642857D01*
X71071428Y-73428571D01*
X71071428Y-72642857D02*
X71142857Y-72500000D01*
X71285714Y-72428571D01*
X71500000Y-72428571D01*
X71642857Y-72500000D01*
X71714285Y-72642857D01*
X71714285Y-73428571D01*
X73000000Y-73357142D02*
X72857142Y-73428571D01*
X72571428Y-73428571D01*
X72428571Y-73357142D01*
X72357142Y-73214285D01*
X72357142Y-72642857D01*
X72428571Y-72500000D01*
X72571428Y-72428571D01*
X72857142Y-72428571D01*
X73000000Y-72500000D01*
X73071428Y-72642857D01*
X73071428Y-72785714D01*
X72357142Y-72928571D01*
X73714285Y-73428571D02*
X73714285Y-72428571D01*
X73714285Y-72714285D02*
X73785714Y-72571428D01*
X73857142Y-72500000D01*
X74000000Y-72428571D01*
X74142857Y-72428571D01*
X75785714Y-73428571D02*
X75785714Y-71928571D01*
X76357142Y-71928571D01*
X76500000Y-72000000D01*
X76571428Y-72071428D01*
X76642857Y-72214285D01*
X76642857Y-72428571D01*
X76571428Y-72571428D01*
X76500000Y-72642857D01*
X76357142Y-72714285D01*
X75785714Y-72714285D01*
X78142857Y-73285714D02*
X78071428Y-73357142D01*
X77857142Y-73428571D01*
X77714285Y-73428571D01*
X77500000Y-73357142D01*
X77357142Y-73214285D01*
X77285714Y-73071428D01*
X77214285Y-72785714D01*
X77214285Y-72571428D01*
X77285714Y-72285714D01*
X77357142Y-72142857D01*
X77500000Y-72000000D01*
X77714285Y-71928571D01*
X77857142Y-71928571D01*
X78071428Y-72000000D01*
X78142857Y-72071428D01*
X79285714Y-72642857D02*
X79500000Y-72714285D01*
X79571428Y-72785714D01*
X79642857Y-72928571D01*
X79642857Y-73142857D01*
X79571428Y-73285714D01*
X79500000Y-73357142D01*
X79357142Y-73428571D01*
X78785714Y-73428571D01*
X78785714Y-71928571D01*
X79285714Y-71928571D01*
X79428571Y-72000000D01*
X79500000Y-72071428D01*
X79571428Y-72214285D01*
X79571428Y-72357142D01*
X79500000Y-72500000D01*
X79428571Y-72571428D01*
X79285714Y-72642857D01*
X78785714Y-72642857D01*
X81428571Y-73428571D02*
X81428571Y-71928571D01*
X81428571Y-72500000D02*
X81571428Y-72428571D01*
X81857142Y-72428571D01*
X82000000Y-72500000D01*
X82071428Y-72571428D01*
X82142857Y-72714285D01*
X82142857Y-73142857D01*
X82071428Y-73285714D01*
X82000000Y-73357142D01*
X81857142Y-73428571D01*
X81571428Y-73428571D01*
X81428571Y-73357142D01*
X82642857Y-72428571D02*
X83000000Y-73428571D01*
X83357142Y-72428571D02*
X83000000Y-73428571D01*
X82857142Y-73785714D01*
X82785714Y-73857142D01*
X82642857Y-73928571D01*
X85571428Y-72642857D02*
X85071428Y-72642857D01*
X85071428Y-73428571D02*
X85071428Y-71928571D01*
X85785714Y-71928571D01*
X86928571Y-73357142D02*
X86785714Y-73428571D01*
X86500000Y-73428571D01*
X86357142Y-73357142D01*
X86285714Y-73214285D01*
X86285714Y-72642857D01*
X86357142Y-72500000D01*
X86500000Y-72428571D01*
X86785714Y-72428571D01*
X86928571Y-72500000D01*
X87000000Y-72642857D01*
X87000000Y-72785714D01*
X86285714Y-72928571D01*
X87857142Y-73428571D02*
X87714285Y-73357142D01*
X87642857Y-73214285D01*
X87642857Y-71928571D01*
X88428571Y-73428571D02*
X88428571Y-72428571D01*
X88428571Y-71928571D02*
X88357142Y-72000000D01*
X88428571Y-72071428D01*
X88500000Y-72000000D01*
X88428571Y-71928571D01*
X88428571Y-72071428D01*
X89000000Y-73428571D02*
X89785714Y-72428571D01*
X89000000Y-72428571D02*
X89785714Y-73428571D01*
X91500000Y-73428571D02*
X91500000Y-71928571D01*
X92071428Y-71928571D01*
X92214285Y-72000000D01*
X92285714Y-72071428D01*
X92357142Y-72214285D01*
X92357142Y-72428571D01*
X92285714Y-72571428D01*
X92214285Y-72642857D01*
X92071428Y-72714285D01*
X91500000Y-72714285D01*
X93000000Y-73428571D02*
X93000000Y-72428571D01*
X93000000Y-71928571D02*
X92928571Y-72000000D01*
X93000000Y-72071428D01*
X93071428Y-72000000D01*
X93000000Y-71928571D01*
X93000000Y-72071428D01*
X94285714Y-73357142D02*
X94142857Y-73428571D01*
X93857142Y-73428571D01*
X93714285Y-73357142D01*
X93642857Y-73214285D01*
X93642857Y-72642857D01*
X93714285Y-72500000D01*
X93857142Y-72428571D01*
X94142857Y-72428571D01*
X94285714Y-72500000D01*
X94357142Y-72642857D01*
X94357142Y-72785714D01*
X93642857Y-72928571D01*
X95214285Y-73428571D02*
X95071428Y-73357142D01*
X95000000Y-73214285D01*
X95000000Y-71928571D01*
X96428571Y-73428571D02*
X96428571Y-72642857D01*
X96357142Y-72500000D01*
X96214285Y-72428571D01*
X95928571Y-72428571D01*
X95785714Y-72500000D01*
X96428571Y-73357142D02*
X96285714Y-73428571D01*
X95928571Y-73428571D01*
X95785714Y-73357142D01*
X95714285Y-73214285D01*
X95714285Y-73071428D01*
X95785714Y-72928571D01*
X95928571Y-72857142D01*
X96285714Y-72857142D01*
X96428571Y-72785714D01*
D11*
X111870000Y-102870000D02*
X111830000Y-102870000D01*
X106450000Y-102870000D02*
X106490000Y-102870000D01*
X111830000Y-101200000D02*
X106490000Y-101200000D01*
X111830000Y-104540000D02*
X111830000Y-101200000D01*
X106490000Y-104540000D02*
X111830000Y-104540000D01*
X106490000Y-101200000D02*
X106490000Y-104540000D01*
X84535000Y-130934569D02*
X85835000Y-130934569D01*
X85185000Y-131584569D02*
X85185000Y-130284569D01*
X88425000Y-117899000D02*
X89375000Y-117899000D01*
X88050000Y-117939000D02*
X89750000Y-117939000D01*
X87793000Y-117979000D02*
X90007000Y-117979000D01*
X87585000Y-118019000D02*
X90215000Y-118019000D01*
X87406000Y-118059000D02*
X90394000Y-118059000D01*
X87247000Y-118099000D02*
X90553000Y-118099000D01*
X87102000Y-118139000D02*
X90698000Y-118139000D01*
X86969000Y-118179000D02*
X90831000Y-118179000D01*
X86845000Y-118219000D02*
X90955000Y-118219000D01*
X86729000Y-118259000D02*
X91071000Y-118259000D01*
X86619000Y-118299000D02*
X91181000Y-118299000D01*
X86515000Y-118339000D02*
X91285000Y-118339000D01*
X86416000Y-118379000D02*
X91384000Y-118379000D01*
X86321000Y-118419000D02*
X91479000Y-118419000D01*
X86230000Y-118459000D02*
X91570000Y-118459000D01*
X86142000Y-118499000D02*
X91658000Y-118499000D01*
X86058000Y-118539000D02*
X91742000Y-118539000D01*
X85977000Y-118579000D02*
X91823000Y-118579000D01*
X85898000Y-118619000D02*
X91902000Y-118619000D01*
X85822000Y-118659000D02*
X91978000Y-118659000D01*
X85748000Y-118699000D02*
X92052000Y-118699000D01*
X85677000Y-118739000D02*
X92123000Y-118739000D01*
X85607000Y-118779000D02*
X92193000Y-118779000D01*
X85539000Y-118819000D02*
X92261000Y-118819000D01*
X85473000Y-118859000D02*
X92327000Y-118859000D01*
X85409000Y-118899000D02*
X92391000Y-118899000D01*
X85346000Y-118939000D02*
X92454000Y-118939000D01*
X85285000Y-118979000D02*
X92515000Y-118979000D01*
X85225000Y-119019000D02*
X92575000Y-119019000D01*
X85167000Y-119059000D02*
X92633000Y-119059000D01*
X85110000Y-119099000D02*
X92690000Y-119099000D01*
X85054000Y-119139000D02*
X92746000Y-119139000D01*
X85000000Y-119179000D02*
X92800000Y-119179000D01*
X84946000Y-119219000D02*
X92854000Y-119219000D01*
X84894000Y-119259000D02*
X92906000Y-119259000D01*
X84843000Y-119299000D02*
X92957000Y-119299000D01*
X84792000Y-119339000D02*
X93008000Y-119339000D01*
X84743000Y-119379000D02*
X93057000Y-119379000D01*
X84695000Y-119419000D02*
X93105000Y-119419000D01*
X84647000Y-119459000D02*
X93153000Y-119459000D01*
X84601000Y-119499000D02*
X93199000Y-119499000D01*
X84555000Y-119539000D02*
X93245000Y-119539000D01*
X84510000Y-119579000D02*
X93290000Y-119579000D01*
X84466000Y-119619000D02*
X93334000Y-119619000D01*
X84423000Y-119659000D02*
X93377000Y-119659000D01*
X84381000Y-119699000D02*
X93419000Y-119699000D01*
X84339000Y-119739000D02*
X93461000Y-119739000D01*
X84298000Y-119779000D02*
X93502000Y-119779000D01*
X84257000Y-119819000D02*
X93543000Y-119819000D01*
X84218000Y-119859000D02*
X93582000Y-119859000D01*
X84179000Y-119899000D02*
X93621000Y-119899000D01*
X84140000Y-119939000D02*
X93660000Y-119939000D01*
X84103000Y-119979000D02*
X93697000Y-119979000D01*
X84066000Y-120019000D02*
X93734000Y-120019000D01*
X84029000Y-120059000D02*
X93771000Y-120059000D01*
X83993000Y-120099000D02*
X93807000Y-120099000D01*
X83958000Y-120139000D02*
X93842000Y-120139000D01*
X83923000Y-120179000D02*
X93877000Y-120179000D01*
X83889000Y-120219000D02*
X93911000Y-120219000D01*
X83856000Y-120259000D02*
X93944000Y-120259000D01*
X83822000Y-120299000D02*
X93978000Y-120299000D01*
X83790000Y-120339000D02*
X94010000Y-120339000D01*
X83758000Y-120379000D02*
X94042000Y-120379000D01*
X83726000Y-120419000D02*
X94074000Y-120419000D01*
X83695000Y-120459000D02*
X94105000Y-120459000D01*
X83665000Y-120499000D02*
X94135000Y-120499000D01*
X83635000Y-120539000D02*
X94165000Y-120539000D01*
X90340000Y-120579000D02*
X94195000Y-120579000D01*
X83605000Y-120579000D02*
X87460000Y-120579000D01*
X90340000Y-120619000D02*
X94224000Y-120619000D01*
X83576000Y-120619000D02*
X87460000Y-120619000D01*
X90340000Y-120659000D02*
X94253000Y-120659000D01*
X83547000Y-120659000D02*
X87460000Y-120659000D01*
X90340000Y-120699000D02*
X94281000Y-120699000D01*
X83519000Y-120699000D02*
X87460000Y-120699000D01*
X90340000Y-120739000D02*
X94309000Y-120739000D01*
X83491000Y-120739000D02*
X87460000Y-120739000D01*
X90340000Y-120779000D02*
X94336000Y-120779000D01*
X83464000Y-120779000D02*
X87460000Y-120779000D01*
X90340000Y-120819000D02*
X94363000Y-120819000D01*
X83437000Y-120819000D02*
X87460000Y-120819000D01*
X90340000Y-120859000D02*
X94390000Y-120859000D01*
X83410000Y-120859000D02*
X87460000Y-120859000D01*
X90340000Y-120899000D02*
X94416000Y-120899000D01*
X83384000Y-120899000D02*
X87460000Y-120899000D01*
X90340000Y-120939000D02*
X94442000Y-120939000D01*
X83358000Y-120939000D02*
X87460000Y-120939000D01*
X90340000Y-120979000D02*
X94467000Y-120979000D01*
X83333000Y-120979000D02*
X87460000Y-120979000D01*
X90340000Y-121019000D02*
X94492000Y-121019000D01*
X83308000Y-121019000D02*
X87460000Y-121019000D01*
X90340000Y-121059000D02*
X94517000Y-121059000D01*
X83283000Y-121059000D02*
X87460000Y-121059000D01*
X90340000Y-121099000D02*
X94541000Y-121099000D01*
X83259000Y-121099000D02*
X87460000Y-121099000D01*
X90340000Y-121139000D02*
X94564000Y-121139000D01*
X83236000Y-121139000D02*
X87460000Y-121139000D01*
X90340000Y-121179000D02*
X94588000Y-121179000D01*
X83212000Y-121179000D02*
X87460000Y-121179000D01*
X90340000Y-121219000D02*
X94611000Y-121219000D01*
X83189000Y-121219000D02*
X87460000Y-121219000D01*
X90340000Y-121259000D02*
X94633000Y-121259000D01*
X83167000Y-121259000D02*
X87460000Y-121259000D01*
X90340000Y-121299000D02*
X94656000Y-121299000D01*
X83144000Y-121299000D02*
X87460000Y-121299000D01*
X90340000Y-121339000D02*
X94678000Y-121339000D01*
X83122000Y-121339000D02*
X87460000Y-121339000D01*
X90340000Y-121379000D02*
X94699000Y-121379000D01*
X83101000Y-121379000D02*
X87460000Y-121379000D01*
X90340000Y-121419000D02*
X94720000Y-121419000D01*
X83080000Y-121419000D02*
X87460000Y-121419000D01*
X90340000Y-121459000D02*
X94741000Y-121459000D01*
X83059000Y-121459000D02*
X87460000Y-121459000D01*
X90340000Y-121499000D02*
X94762000Y-121499000D01*
X83038000Y-121499000D02*
X87460000Y-121499000D01*
X90340000Y-121539000D02*
X94782000Y-121539000D01*
X83018000Y-121539000D02*
X87460000Y-121539000D01*
X90340000Y-121579000D02*
X94802000Y-121579000D01*
X82998000Y-121579000D02*
X87460000Y-121579000D01*
X90340000Y-121619000D02*
X94821000Y-121619000D01*
X82979000Y-121619000D02*
X87460000Y-121619000D01*
X90340000Y-121659000D02*
X94840000Y-121659000D01*
X82960000Y-121659000D02*
X87460000Y-121659000D01*
X90340000Y-121699000D02*
X94859000Y-121699000D01*
X82941000Y-121699000D02*
X87460000Y-121699000D01*
X90340000Y-121739000D02*
X94878000Y-121739000D01*
X82922000Y-121739000D02*
X87460000Y-121739000D01*
X90340000Y-121779000D02*
X94896000Y-121779000D01*
X82904000Y-121779000D02*
X87460000Y-121779000D01*
X90340000Y-121819000D02*
X94914000Y-121819000D01*
X82886000Y-121819000D02*
X87460000Y-121819000D01*
X90340000Y-121859000D02*
X94931000Y-121859000D01*
X82869000Y-121859000D02*
X87460000Y-121859000D01*
X90340000Y-121899000D02*
X94949000Y-121899000D01*
X82851000Y-121899000D02*
X87460000Y-121899000D01*
X90340000Y-121939000D02*
X94965000Y-121939000D01*
X82835000Y-121939000D02*
X87460000Y-121939000D01*
X90340000Y-121979000D02*
X94982000Y-121979000D01*
X82818000Y-121979000D02*
X87460000Y-121979000D01*
X90340000Y-122019000D02*
X94998000Y-122019000D01*
X82802000Y-122019000D02*
X87460000Y-122019000D01*
X90340000Y-122059000D02*
X95014000Y-122059000D01*
X82786000Y-122059000D02*
X87460000Y-122059000D01*
X90340000Y-122099000D02*
X95030000Y-122099000D01*
X82770000Y-122099000D02*
X87460000Y-122099000D01*
X90340000Y-122139000D02*
X95046000Y-122139000D01*
X82754000Y-122139000D02*
X87460000Y-122139000D01*
X90340000Y-122179000D02*
X95061000Y-122179000D01*
X82739000Y-122179000D02*
X87460000Y-122179000D01*
X90340000Y-122219000D02*
X95075000Y-122219000D01*
X82725000Y-122219000D02*
X87460000Y-122219000D01*
X90340000Y-122259000D02*
X95090000Y-122259000D01*
X82710000Y-122259000D02*
X87460000Y-122259000D01*
X90340000Y-122299000D02*
X95104000Y-122299000D01*
X82696000Y-122299000D02*
X87460000Y-122299000D01*
X90340000Y-122339000D02*
X95118000Y-122339000D01*
X82682000Y-122339000D02*
X87460000Y-122339000D01*
X90340000Y-122379000D02*
X95132000Y-122379000D01*
X82668000Y-122379000D02*
X87460000Y-122379000D01*
X90340000Y-122419000D02*
X95145000Y-122419000D01*
X82655000Y-122419000D02*
X87460000Y-122419000D01*
X90340000Y-122459000D02*
X95158000Y-122459000D01*
X82642000Y-122459000D02*
X87460000Y-122459000D01*
X90340000Y-122499000D02*
X95171000Y-122499000D01*
X82629000Y-122499000D02*
X87460000Y-122499000D01*
X90340000Y-122539000D02*
X95184000Y-122539000D01*
X82616000Y-122539000D02*
X87460000Y-122539000D01*
X90340000Y-122579000D02*
X95196000Y-122579000D01*
X82604000Y-122579000D02*
X87460000Y-122579000D01*
X90340000Y-122619000D02*
X95208000Y-122619000D01*
X82592000Y-122619000D02*
X87460000Y-122619000D01*
X90340000Y-122659000D02*
X95220000Y-122659000D01*
X82580000Y-122659000D02*
X87460000Y-122659000D01*
X90340000Y-122699000D02*
X95231000Y-122699000D01*
X82569000Y-122699000D02*
X87460000Y-122699000D01*
X90340000Y-122739000D02*
X95242000Y-122739000D01*
X82558000Y-122739000D02*
X87460000Y-122739000D01*
X90340000Y-122779000D02*
X95253000Y-122779000D01*
X82547000Y-122779000D02*
X87460000Y-122779000D01*
X90340000Y-122819000D02*
X95264000Y-122819000D01*
X82536000Y-122819000D02*
X87460000Y-122819000D01*
X90340000Y-122859000D02*
X95274000Y-122859000D01*
X82526000Y-122859000D02*
X87460000Y-122859000D01*
X90340000Y-122899000D02*
X95284000Y-122899000D01*
X82516000Y-122899000D02*
X87460000Y-122899000D01*
X90340000Y-122939000D02*
X95294000Y-122939000D01*
X82506000Y-122939000D02*
X87460000Y-122939000D01*
X90340000Y-122979000D02*
X95304000Y-122979000D01*
X82496000Y-122979000D02*
X87460000Y-122979000D01*
X90340000Y-123019000D02*
X95313000Y-123019000D01*
X82487000Y-123019000D02*
X87460000Y-123019000D01*
X90340000Y-123059000D02*
X95322000Y-123059000D01*
X82478000Y-123059000D02*
X87460000Y-123059000D01*
X90340000Y-123099000D02*
X95331000Y-123099000D01*
X82469000Y-123099000D02*
X87460000Y-123099000D01*
X90340000Y-123139000D02*
X95339000Y-123139000D01*
X82461000Y-123139000D02*
X87460000Y-123139000D01*
X90340000Y-123179000D02*
X95348000Y-123179000D01*
X82452000Y-123179000D02*
X87460000Y-123179000D01*
X90340000Y-123219000D02*
X95356000Y-123219000D01*
X82444000Y-123219000D02*
X87460000Y-123219000D01*
X90340000Y-123259000D02*
X95363000Y-123259000D01*
X82437000Y-123259000D02*
X87460000Y-123259000D01*
X90340000Y-123299000D02*
X95371000Y-123299000D01*
X82429000Y-123299000D02*
X87460000Y-123299000D01*
X90340000Y-123339000D02*
X95378000Y-123339000D01*
X82422000Y-123339000D02*
X87460000Y-123339000D01*
X90340000Y-123379000D02*
X95385000Y-123379000D01*
X82415000Y-123379000D02*
X87460000Y-123379000D01*
X90340000Y-123419000D02*
X95392000Y-123419000D01*
X82408000Y-123419000D02*
X87460000Y-123419000D01*
X82402000Y-123459000D02*
X95398000Y-123459000D01*
X82395000Y-123499000D02*
X95405000Y-123499000D01*
X82389000Y-123539000D02*
X95411000Y-123539000D01*
X82384000Y-123579000D02*
X95416000Y-123579000D01*
X82378000Y-123619000D02*
X95422000Y-123619000D01*
X82373000Y-123659000D02*
X95427000Y-123659000D01*
X82368000Y-123699000D02*
X95432000Y-123699000D01*
X82363000Y-123739000D02*
X95437000Y-123739000D01*
X82359000Y-123779000D02*
X95441000Y-123779000D01*
X82355000Y-123820000D02*
X95445000Y-123820000D01*
X82351000Y-123860000D02*
X95449000Y-123860000D01*
X82347000Y-123900000D02*
X95453000Y-123900000D01*
X82343000Y-123940000D02*
X95457000Y-123940000D01*
X82340000Y-123980000D02*
X95460000Y-123980000D01*
X82337000Y-124020000D02*
X95463000Y-124020000D01*
X82334000Y-124060000D02*
X95466000Y-124060000D01*
X82332000Y-124100000D02*
X95468000Y-124100000D01*
X82329000Y-124140000D02*
X95471000Y-124140000D01*
X82327000Y-124180000D02*
X95473000Y-124180000D01*
X82325000Y-124220000D02*
X95475000Y-124220000D01*
X82324000Y-124260000D02*
X95476000Y-124260000D01*
X82323000Y-124300000D02*
X95477000Y-124300000D01*
X82321000Y-124340000D02*
X95479000Y-124340000D01*
X82321000Y-124380000D02*
X95479000Y-124380000D01*
X82320000Y-124420000D02*
X95480000Y-124420000D01*
X82320000Y-124460000D02*
X95480000Y-124460000D01*
X82320000Y-124500000D02*
X95480000Y-124500000D01*
X95520000Y-124500000D02*
G75*
G03*
X95520000Y-124500000I-6620000J0D01*
G01*
X132430000Y-122835302D02*
X131630000Y-122835302D01*
X132030000Y-122435302D02*
X132030000Y-123235302D01*
X130248000Y-130926000D02*
X129182000Y-130926000D01*
X130483000Y-130886000D02*
X128947000Y-130886000D01*
X130663000Y-130846000D02*
X128767000Y-130846000D01*
X130813000Y-130806000D02*
X128617000Y-130806000D01*
X130944000Y-130766000D02*
X128486000Y-130766000D01*
X131061000Y-130726000D02*
X128369000Y-130726000D01*
X131168000Y-130686000D02*
X128262000Y-130686000D01*
X131267000Y-130646000D02*
X128163000Y-130646000D01*
X131360000Y-130606000D02*
X128070000Y-130606000D01*
X131446000Y-130566000D02*
X127984000Y-130566000D01*
X131528000Y-130526000D02*
X127902000Y-130526000D01*
X131605000Y-130486000D02*
X127825000Y-130486000D01*
X131679000Y-130446000D02*
X127751000Y-130446000D01*
X131749000Y-130406000D02*
X127681000Y-130406000D01*
X131817000Y-130366000D02*
X127613000Y-130366000D01*
X131881000Y-130326000D02*
X127549000Y-130326000D01*
X131943000Y-130286000D02*
X127487000Y-130286000D01*
X132002000Y-130246000D02*
X127428000Y-130246000D01*
X132060000Y-130206000D02*
X127370000Y-130206000D01*
X132115000Y-130166000D02*
X127315000Y-130166000D01*
X132169000Y-130126000D02*
X127261000Y-130126000D01*
X132220000Y-130086000D02*
X127210000Y-130086000D01*
X132271000Y-130046000D02*
X127159000Y-130046000D01*
X132319000Y-130006000D02*
X127111000Y-130006000D01*
X132366000Y-129966000D02*
X127064000Y-129966000D01*
X132412000Y-129926000D02*
X127018000Y-129926000D01*
X132456000Y-129886000D02*
X126974000Y-129886000D01*
X132499000Y-129846000D02*
X126931000Y-129846000D01*
X132541000Y-129806000D02*
X126889000Y-129806000D01*
X132582000Y-129766000D02*
X126848000Y-129766000D01*
X132622000Y-129726000D02*
X126808000Y-129726000D01*
X132660000Y-129686000D02*
X126770000Y-129686000D01*
X132698000Y-129646000D02*
X126732000Y-129646000D01*
X128675000Y-129606000D02*
X126696000Y-129606000D01*
X132734000Y-129606000D02*
X130755000Y-129606000D01*
X128675000Y-129566000D02*
X126660000Y-129566000D01*
X132770000Y-129566000D02*
X130755000Y-129566000D01*
X128675000Y-129526000D02*
X126625000Y-129526000D01*
X132805000Y-129526000D02*
X130755000Y-129526000D01*
X128675000Y-129486000D02*
X126591000Y-129486000D01*
X132839000Y-129486000D02*
X130755000Y-129486000D01*
X128675000Y-129446000D02*
X126559000Y-129446000D01*
X132871000Y-129446000D02*
X130755000Y-129446000D01*
X128675000Y-129406000D02*
X126526000Y-129406000D01*
X132904000Y-129406000D02*
X130755000Y-129406000D01*
X128675000Y-129366000D02*
X126495000Y-129366000D01*
X132935000Y-129366000D02*
X130755000Y-129366000D01*
X128675000Y-129326000D02*
X126465000Y-129326000D01*
X132965000Y-129326000D02*
X130755000Y-129326000D01*
X128675000Y-129286000D02*
X126435000Y-129286000D01*
X132995000Y-129286000D02*
X130755000Y-129286000D01*
X128675000Y-129246000D02*
X126406000Y-129246000D01*
X133024000Y-129246000D02*
X130755000Y-129246000D01*
X128675000Y-129206000D02*
X126377000Y-129206000D01*
X133053000Y-129206000D02*
X130755000Y-129206000D01*
X128675000Y-129166000D02*
X126350000Y-129166000D01*
X133080000Y-129166000D02*
X130755000Y-129166000D01*
X128675000Y-129126000D02*
X126323000Y-129126000D01*
X133107000Y-129126000D02*
X130755000Y-129126000D01*
X128675000Y-129086000D02*
X126297000Y-129086000D01*
X133133000Y-129086000D02*
X130755000Y-129086000D01*
X128675000Y-129046000D02*
X126271000Y-129046000D01*
X133159000Y-129046000D02*
X130755000Y-129046000D01*
X128675000Y-129006000D02*
X126246000Y-129006000D01*
X133184000Y-129006000D02*
X130755000Y-129006000D01*
X128675000Y-128966000D02*
X126222000Y-128966000D01*
X133208000Y-128966000D02*
X130755000Y-128966000D01*
X128675000Y-128926000D02*
X126198000Y-128926000D01*
X133232000Y-128926000D02*
X130755000Y-128926000D01*
X128675000Y-128886000D02*
X126175000Y-128886000D01*
X133255000Y-128886000D02*
X130755000Y-128886000D01*
X128675000Y-128846000D02*
X126153000Y-128846000D01*
X133277000Y-128846000D02*
X130755000Y-128846000D01*
X128675000Y-128806000D02*
X126131000Y-128806000D01*
X133299000Y-128806000D02*
X130755000Y-128806000D01*
X128675000Y-128766000D02*
X126109000Y-128766000D01*
X133321000Y-128766000D02*
X130755000Y-128766000D01*
X128675000Y-128726000D02*
X126088000Y-128726000D01*
X133342000Y-128726000D02*
X130755000Y-128726000D01*
X128675000Y-128686000D02*
X126068000Y-128686000D01*
X133362000Y-128686000D02*
X130755000Y-128686000D01*
X128675000Y-128646000D02*
X126049000Y-128646000D01*
X133381000Y-128646000D02*
X130755000Y-128646000D01*
X128675000Y-128606000D02*
X126029000Y-128606000D01*
X133401000Y-128606000D02*
X130755000Y-128606000D01*
X128675000Y-128566000D02*
X126011000Y-128566000D01*
X133419000Y-128566000D02*
X130755000Y-128566000D01*
X128675000Y-128526000D02*
X125993000Y-128526000D01*
X133437000Y-128526000D02*
X130755000Y-128526000D01*
X128675000Y-128486000D02*
X125975000Y-128486000D01*
X133455000Y-128486000D02*
X130755000Y-128486000D01*
X128675000Y-128446000D02*
X125958000Y-128446000D01*
X133472000Y-128446000D02*
X130755000Y-128446000D01*
X128675000Y-128406000D02*
X125941000Y-128406000D01*
X133489000Y-128406000D02*
X130755000Y-128406000D01*
X128675000Y-128366000D02*
X125925000Y-128366000D01*
X133505000Y-128366000D02*
X130755000Y-128366000D01*
X128675000Y-128326000D02*
X125910000Y-128326000D01*
X133520000Y-128326000D02*
X130755000Y-128326000D01*
X128675000Y-128286000D02*
X125894000Y-128286000D01*
X133536000Y-128286000D02*
X130755000Y-128286000D01*
X128675000Y-128246000D02*
X125880000Y-128246000D01*
X133550000Y-128246000D02*
X130755000Y-128246000D01*
X128675000Y-128206000D02*
X125865000Y-128206000D01*
X133565000Y-128206000D02*
X130755000Y-128206000D01*
X128675000Y-128166000D02*
X125852000Y-128166000D01*
X133578000Y-128166000D02*
X130755000Y-128166000D01*
X128675000Y-128126000D02*
X125838000Y-128126000D01*
X133592000Y-128126000D02*
X130755000Y-128126000D01*
X128675000Y-128086000D02*
X125826000Y-128086000D01*
X133604000Y-128086000D02*
X130755000Y-128086000D01*
X128675000Y-128046000D02*
X125813000Y-128046000D01*
X133617000Y-128046000D02*
X130755000Y-128046000D01*
X128675000Y-128006000D02*
X125801000Y-128006000D01*
X133629000Y-128006000D02*
X130755000Y-128006000D01*
X128675000Y-127966000D02*
X125790000Y-127966000D01*
X133640000Y-127966000D02*
X130755000Y-127966000D01*
X128675000Y-127926000D02*
X125779000Y-127926000D01*
X133651000Y-127926000D02*
X130755000Y-127926000D01*
X128675000Y-127886000D02*
X125768000Y-127886000D01*
X133662000Y-127886000D02*
X130755000Y-127886000D01*
X128675000Y-127846000D02*
X125758000Y-127846000D01*
X133672000Y-127846000D02*
X130755000Y-127846000D01*
X128675000Y-127806000D02*
X125748000Y-127806000D01*
X133682000Y-127806000D02*
X130755000Y-127806000D01*
X128675000Y-127766000D02*
X125739000Y-127766000D01*
X133691000Y-127766000D02*
X130755000Y-127766000D01*
X128675000Y-127726000D02*
X125730000Y-127726000D01*
X133700000Y-127726000D02*
X130755000Y-127726000D01*
X128675000Y-127686000D02*
X125721000Y-127686000D01*
X133709000Y-127686000D02*
X130755000Y-127686000D01*
X128675000Y-127646000D02*
X125713000Y-127646000D01*
X133717000Y-127646000D02*
X130755000Y-127646000D01*
X128675000Y-127606000D02*
X125705000Y-127606000D01*
X133725000Y-127606000D02*
X130755000Y-127606000D01*
X128675000Y-127566000D02*
X125698000Y-127566000D01*
X133732000Y-127566000D02*
X130755000Y-127566000D01*
X133739000Y-127525000D02*
X125691000Y-127525000D01*
X133745000Y-127485000D02*
X125685000Y-127485000D01*
X133752000Y-127445000D02*
X125678000Y-127445000D01*
X133757000Y-127405000D02*
X125673000Y-127405000D01*
X133763000Y-127365000D02*
X125667000Y-127365000D01*
X133767000Y-127325000D02*
X125663000Y-127325000D01*
X133772000Y-127285000D02*
X125658000Y-127285000D01*
X133776000Y-127245000D02*
X125654000Y-127245000D01*
X133780000Y-127205000D02*
X125650000Y-127205000D01*
X133783000Y-127165000D02*
X125647000Y-127165000D01*
X133786000Y-127125000D02*
X125644000Y-127125000D01*
X133789000Y-127085000D02*
X125641000Y-127085000D01*
X133791000Y-127045000D02*
X125639000Y-127045000D01*
X133792000Y-127005000D02*
X125638000Y-127005000D01*
X133794000Y-126965000D02*
X125636000Y-126965000D01*
X133795000Y-126925000D02*
X125635000Y-126925000D01*
X133795000Y-126885000D02*
X125635000Y-126885000D01*
X133795000Y-126845000D02*
X125635000Y-126845000D01*
X133835000Y-126845000D02*
G75*
G03*
X133835000Y-126845000I-4120000J0D01*
G01*
X76470000Y-123120000D02*
X76470000Y-126320000D01*
X77417843Y-128106479D02*
G75*
G03*
X82550000Y-128143000I2592157J3646479D01*
G01*
X83817105Y-126750818D02*
G75*
G03*
X83820000Y-122174000I-3807105J2290818D01*
G01*
X82602157Y-120813521D02*
G75*
G03*
X77470000Y-120777000I-2592157J-3646479D01*
G01*
X119340000Y-92075000D02*
G75*
G03*
X119340000Y-92075000I-2500000J0D01*
G01*
X118385000Y-89515000D02*
X115295000Y-89515000D01*
X116839538Y-95065000D02*
G75*
G03*
X118384830Y-89515000I462J2990000D01*
G01*
X116840462Y-95065000D02*
G75*
G02*
X115295170Y-89515000I-462J2990000D01*
G01*
X129000000Y-104240000D02*
X129000000Y-101500000D01*
X129000000Y-101500000D02*
X122460000Y-101500000D01*
X122460000Y-101500000D02*
X122460000Y-104240000D01*
X122460000Y-104240000D02*
X129000000Y-104240000D01*
X129770000Y-102870000D02*
X129000000Y-102870000D01*
X121690000Y-102870000D02*
X122460000Y-102870000D01*
X116840000Y-97560000D02*
X116840000Y-98330000D01*
X116840000Y-105640000D02*
X116840000Y-104870000D01*
X115470000Y-98330000D02*
X115470000Y-104870000D01*
X118210000Y-98330000D02*
X115470000Y-98330000D01*
X118210000Y-104870000D02*
X118210000Y-98330000D01*
X115470000Y-104870000D02*
X118210000Y-104870000D01*
X124460000Y-125850000D02*
X124460000Y-128390000D01*
X121920000Y-125850000D02*
X121920000Y-128390000D01*
X119380000Y-125850000D02*
X119380000Y-128390000D01*
X127040000Y-109960000D02*
X127040000Y-125850000D01*
X116800000Y-109960000D02*
X116800000Y-125850000D01*
X116800000Y-109960000D02*
X127040000Y-109960000D01*
X116800000Y-125850000D02*
X127040000Y-125850000D01*
D12*
G36*
X88646000Y-105791000D02*
G01*
X88392000Y-105537000D01*
X88773000Y-105283000D01*
X89027000Y-105537000D01*
X88646000Y-105791000D01*
G37*
X88646000Y-105791000D02*
X88392000Y-105537000D01*
X88773000Y-105283000D01*
X89027000Y-105537000D01*
X88646000Y-105791000D01*
G36*
X87630000Y-106553000D02*
G01*
X87376000Y-106299000D01*
X87757000Y-106045000D01*
X88011000Y-106299000D01*
X87630000Y-106553000D01*
G37*
X87630000Y-106553000D02*
X87376000Y-106299000D01*
X87757000Y-106045000D01*
X88011000Y-106299000D01*
X87630000Y-106553000D01*
G36*
X88392000Y-107315000D02*
G01*
X88138000Y-107061000D01*
X88519000Y-106807000D01*
X88773000Y-107061000D01*
X88392000Y-107315000D01*
G37*
X88392000Y-107315000D02*
X88138000Y-107061000D01*
X88519000Y-106807000D01*
X88773000Y-107061000D01*
X88392000Y-107315000D01*
G36*
X88265000Y-105410000D02*
G01*
X88011000Y-105156000D01*
X88392000Y-104902000D01*
X88646000Y-105156000D01*
X88265000Y-105410000D01*
G37*
X88265000Y-105410000D02*
X88011000Y-105156000D01*
X88392000Y-104902000D01*
X88646000Y-105156000D01*
X88265000Y-105410000D01*
G36*
X88011000Y-106934000D02*
G01*
X87757000Y-106680000D01*
X88138000Y-106426000D01*
X88392000Y-106680000D01*
X88011000Y-106934000D01*
G37*
X88011000Y-106934000D02*
X87757000Y-106680000D01*
X88138000Y-106426000D01*
X88392000Y-106680000D01*
X88011000Y-106934000D01*
G36*
X88773000Y-105029000D02*
G01*
X88519000Y-104775000D01*
X88900000Y-104521000D01*
X89154000Y-104775000D01*
X88773000Y-105029000D01*
G37*
X88773000Y-105029000D02*
X88519000Y-104775000D01*
X88900000Y-104521000D01*
X89154000Y-104775000D01*
X88773000Y-105029000D01*
G36*
X88138000Y-106172000D02*
G01*
X87884000Y-105918000D01*
X88265000Y-105664000D01*
X88519000Y-105918000D01*
X88138000Y-106172000D01*
G37*
X88138000Y-106172000D02*
X87884000Y-105918000D01*
X88265000Y-105664000D01*
X88519000Y-105918000D01*
X88138000Y-106172000D01*
G36*
X87757000Y-105791000D02*
G01*
X87503000Y-105537000D01*
X87884000Y-105283000D01*
X88138000Y-105537000D01*
X87757000Y-105791000D01*
G37*
X87757000Y-105791000D02*
X87503000Y-105537000D01*
X87884000Y-105283000D01*
X88138000Y-105537000D01*
X87757000Y-105791000D01*
D13*
X66040000Y-111760000D02*
X66040000Y-93980000D01*
X101600000Y-111760000D02*
X66040000Y-111760000D01*
X101600000Y-93980000D02*
X101600000Y-111760000D01*
X66040000Y-93980000D02*
X101600000Y-93980000D01*
X92710000Y-107950000D02*
X83820000Y-107950000D01*
X92710000Y-97790000D02*
X83820000Y-97790000D01*
X83820000Y-97790000D02*
X83820000Y-107950000D01*
X92710000Y-107950000D02*
X92710000Y-97790000D01*
X96520000Y-100330000D02*
X99060000Y-100330000D01*
X96520000Y-105410000D02*
X96520000Y-100330000D01*
X99060000Y-105410000D02*
X96520000Y-105410000D01*
X99060000Y-100330000D02*
X99060000Y-105410000D01*
X72390000Y-105410000D02*
X72390000Y-107950000D01*
X74930000Y-105410000D02*
X72390000Y-105410000D01*
X74930000Y-107950000D02*
X74930000Y-105410000D01*
X72390000Y-107950000D02*
X74930000Y-107950000D01*
X71120000Y-106680000D02*
X66040000Y-106680000D01*
X71120000Y-99060000D02*
X66040000Y-99060000D01*
X71120000Y-106680000D02*
X71120000Y-99060000D01*
X77470000Y-105410000D02*
X77470000Y-107950000D01*
X81280000Y-105410000D02*
X77470000Y-105410000D01*
X81280000Y-107950000D02*
X81280000Y-105410000D01*
X77470000Y-107950000D02*
X81280000Y-107950000D01*
X64770000Y-99060000D02*
X66040000Y-99060000D01*
X64770000Y-106680000D02*
X64770000Y-99060000D01*
X66040000Y-106680000D02*
X64770000Y-106680000D01*
D11*
X117000000Y-76750000D02*
X115500000Y-87000000D01*
X108500000Y-87000000D02*
X113250000Y-87000000D01*
X123000000Y-82000000D02*
X127500000Y-82000000D01*
X120250000Y-87000000D02*
X121500000Y-76750000D01*
X122250000Y-87000000D02*
X127000000Y-87000000D01*
X109250000Y-82000000D02*
X113750000Y-82000000D01*
X115500000Y-87000000D02*
X120250000Y-87000000D01*
X113250000Y-87000000D02*
X114500000Y-76750000D01*
X121500000Y-76750000D02*
X117000000Y-76750000D01*
X110000000Y-76750000D02*
X108500000Y-87000000D01*
X116250000Y-82000000D02*
X120750000Y-82000000D01*
X114500000Y-76750000D02*
X110000000Y-76750000D01*
X130000000Y-82000000D02*
X134500000Y-82000000D01*
X129250000Y-87000000D02*
X134000000Y-87000000D01*
X130750000Y-76750000D02*
X129250000Y-87000000D01*
X135250000Y-76750000D02*
X130750000Y-76750000D01*
X134000000Y-87000000D02*
X135250000Y-76750000D01*
X123750000Y-76750000D02*
X122250000Y-87000000D01*
X128250000Y-76750000D02*
X123750000Y-76750000D01*
X127000000Y-87000000D02*
X128250000Y-76750000D01*
X79500000Y-82000000D02*
X84000000Y-82000000D01*
X78750000Y-87000000D02*
X83500000Y-87000000D01*
X86500000Y-82000000D02*
X91000000Y-82000000D01*
X85750000Y-87000000D02*
X90500000Y-87000000D01*
X87250000Y-76750000D02*
X85750000Y-87000000D01*
X91750000Y-76750000D02*
X87250000Y-76750000D01*
X90500000Y-87000000D02*
X91750000Y-76750000D01*
X80250000Y-76750000D02*
X78750000Y-87000000D01*
X84750000Y-76750000D02*
X80250000Y-76750000D01*
X83500000Y-87000000D02*
X84750000Y-76750000D01*
X93250000Y-82000000D02*
X97750000Y-82000000D01*
X92500000Y-87000000D02*
X97250000Y-87000000D01*
X94000000Y-76750000D02*
X92500000Y-87000000D01*
X98500000Y-76750000D02*
X94000000Y-76750000D01*
X97250000Y-87000000D02*
X98500000Y-76750000D01*
X100250000Y-82000000D02*
X104750000Y-82000000D01*
X99500000Y-87000000D02*
X104250000Y-87000000D01*
X101000000Y-76750000D02*
X99500000Y-87000000D01*
X105500000Y-76750000D02*
X101000000Y-76750000D01*
X104250000Y-87000000D02*
X105500000Y-76750000D01*
X147150000Y-77500000D02*
G75*
G03*
X147150000Y-77500000I-1900000J0D01*
G01*
X147150000Y-86500000D02*
G75*
G03*
X147150000Y-86500000I-1900000J0D01*
G01*
X70650000Y-86500000D02*
G75*
G03*
X70650000Y-86500000I-1900000J0D01*
G01*
X70650000Y-77500000D02*
G75*
G03*
X70650000Y-77500000I-1900000J0D01*
G01*
X65750000Y-89500000D02*
X65750000Y-74500000D01*
X148250000Y-89500000D02*
X65750000Y-89500000D01*
X148250000Y-74500000D02*
X148250000Y-89500000D01*
X65750000Y-74500000D02*
X148250000Y-74500000D01*
X65050000Y-121140000D02*
X65050000Y-121540000D01*
X65690000Y-121140000D02*
X65050000Y-121140000D01*
X68909000Y-125545000D02*
X68781000Y-125416000D01*
X71125000Y-127760000D02*
X71031000Y-127666000D01*
X68669000Y-125715000D02*
X68576000Y-125621000D01*
X70919000Y-127965000D02*
X70791000Y-127836000D01*
X73010000Y-128500000D02*
X65290000Y-128500000D01*
X73010000Y-121380000D02*
X65290000Y-121380000D01*
X65290000Y-121380000D02*
X65290000Y-128500000D01*
X73010000Y-121380000D02*
X73010000Y-128500000D01*
X66850000Y-121380000D02*
X66850000Y-128500000D01*
X65750000Y-121380000D02*
X65750000Y-128500000D01*
X71530000Y-126690000D02*
G75*
G03*
X71530000Y-126690000I-1680000J0D01*
G01*
X68425279Y-124080264D02*
G75*
G02*
X68170000Y-123190000I1424721J890264D01*
G01*
X70740193Y-124615505D02*
G75*
G02*
X68959000Y-124615000I-890193J1425505D01*
G01*
X71275358Y-122300106D02*
G75*
G02*
X71290000Y-124056000I-1425358J-889894D01*
G01*
X68960106Y-121764642D02*
G75*
G02*
X70716000Y-121750000I889894J-1425358D01*
G01*
X68169901Y-123218674D02*
G75*
G02*
X68410000Y-122324000I1680099J28674D01*
G01*
X153390000Y-128320000D02*
X153390000Y-127920000D01*
X152750000Y-128320000D02*
X153390000Y-128320000D01*
X149531000Y-120415000D02*
X149659000Y-120544000D01*
X147315000Y-118200000D02*
X147409000Y-118294000D01*
X149771000Y-120245000D02*
X149864000Y-120339000D01*
X147521000Y-117995000D02*
X147649000Y-118124000D01*
X149531000Y-123915000D02*
X149659000Y-124044000D01*
X147315000Y-121700000D02*
X147409000Y-121794000D01*
X149771000Y-123745000D02*
X149864000Y-123839000D01*
X147521000Y-121495000D02*
X147649000Y-121624000D01*
X145430000Y-117460000D02*
X153150000Y-117460000D01*
X145430000Y-128080000D02*
X153150000Y-128080000D01*
X153150000Y-128080000D02*
X153150000Y-117460000D01*
X145430000Y-128080000D02*
X145430000Y-117460000D01*
X151590000Y-128080000D02*
X151590000Y-117460000D01*
X152690000Y-128080000D02*
X152690000Y-117460000D01*
X150270000Y-119270000D02*
G75*
G03*
X150270000Y-119270000I-1680000J0D01*
G01*
X150270000Y-122770000D02*
G75*
G03*
X150270000Y-122770000I-1680000J0D01*
G01*
X150014721Y-125379736D02*
G75*
G02*
X150270000Y-126270000I-1424721J-890264D01*
G01*
X147699807Y-124844495D02*
G75*
G02*
X149481000Y-124845000I890193J-1425505D01*
G01*
X147164642Y-127159894D02*
G75*
G02*
X147150000Y-125404000I1425358J889894D01*
G01*
X149479894Y-127695358D02*
G75*
G02*
X147724000Y-127710000I-889894J1425358D01*
G01*
X150270099Y-126241326D02*
G75*
G02*
X150030000Y-127136000I-1680099J-28674D01*
G01*
X145120000Y-101560000D02*
G75*
G03*
X145120000Y-101560000I-3000000J0D01*
G01*
X144120000Y-95660000D02*
X148220000Y-95660000D01*
X148220000Y-107460000D02*
X144120000Y-107460000D01*
X140120000Y-107460000D02*
X136020000Y-107460000D01*
X140120000Y-95660000D02*
X136020000Y-95660000D01*
X136020000Y-95660000D02*
X136020000Y-107460000D01*
X134620000Y-97760000D02*
X134320000Y-97460000D01*
X134320000Y-97460000D02*
X134920000Y-97460000D01*
X134920000Y-97460000D02*
X134620000Y-97760000D01*
X148220000Y-95660000D02*
X148220000Y-98060000D01*
X148220000Y-100260000D02*
X148220000Y-102860000D01*
X148220000Y-105060000D02*
X148220000Y-107460000D01*
X142120000Y-101060000D02*
X142120000Y-102060000D01*
X141620000Y-101560000D02*
X142620000Y-101560000D01*
D13*
X109083333Y-103107142D02*
X109035714Y-103154761D01*
X108892857Y-103202380D01*
X108797619Y-103202380D01*
X108654761Y-103154761D01*
X108559523Y-103059523D01*
X108511904Y-102964285D01*
X108464285Y-102773809D01*
X108464285Y-102630952D01*
X108511904Y-102440476D01*
X108559523Y-102345238D01*
X108654761Y-102250000D01*
X108797619Y-102202380D01*
X108892857Y-102202380D01*
X109035714Y-102250000D01*
X109083333Y-102297619D01*
X110035714Y-103202380D02*
X109464285Y-103202380D01*
X109750000Y-103202380D02*
X109750000Y-102202380D01*
X109654761Y-102345238D01*
X109559523Y-102440476D01*
X109464285Y-102488095D01*
X95607142Y-129916666D02*
X95654761Y-129964285D01*
X95702380Y-130107142D01*
X95702380Y-130202380D01*
X95654761Y-130345238D01*
X95559523Y-130440476D01*
X95464285Y-130488095D01*
X95273809Y-130535714D01*
X95130952Y-130535714D01*
X94940476Y-130488095D01*
X94845238Y-130440476D01*
X94750000Y-130345238D01*
X94702380Y-130202380D01*
X94702380Y-130107142D01*
X94750000Y-129964285D01*
X94797619Y-129916666D01*
X94797619Y-129535714D02*
X94750000Y-129488095D01*
X94702380Y-129392857D01*
X94702380Y-129154761D01*
X94750000Y-129059523D01*
X94797619Y-129011904D01*
X94892857Y-128964285D01*
X94988095Y-128964285D01*
X95130952Y-129011904D01*
X95702380Y-129583333D01*
X95702380Y-128964285D01*
X135322142Y-127011666D02*
X135369761Y-127059285D01*
X135417380Y-127202142D01*
X135417380Y-127297380D01*
X135369761Y-127440238D01*
X135274523Y-127535476D01*
X135179285Y-127583095D01*
X134988809Y-127630714D01*
X134845952Y-127630714D01*
X134655476Y-127583095D01*
X134560238Y-127535476D01*
X134465000Y-127440238D01*
X134417380Y-127297380D01*
X134417380Y-127202142D01*
X134465000Y-127059285D01*
X134512619Y-127011666D01*
X134417380Y-126678333D02*
X134417380Y-126059285D01*
X134798333Y-126392619D01*
X134798333Y-126249761D01*
X134845952Y-126154523D01*
X134893571Y-126106904D01*
X134988809Y-126059285D01*
X135226904Y-126059285D01*
X135322142Y-126106904D01*
X135369761Y-126154523D01*
X135417380Y-126249761D01*
X135417380Y-126535476D01*
X135369761Y-126630714D01*
X135322142Y-126678333D01*
X79271904Y-119578380D02*
X79271904Y-118578380D01*
X79510000Y-118578380D01*
X79652857Y-118626000D01*
X79748095Y-118721238D01*
X79795714Y-118816476D01*
X79843333Y-119006952D01*
X79843333Y-119149809D01*
X79795714Y-119340285D01*
X79748095Y-119435523D01*
X79652857Y-119530761D01*
X79510000Y-119578380D01*
X79271904Y-119578380D01*
X80795714Y-119578380D02*
X80224285Y-119578380D01*
X80510000Y-119578380D02*
X80510000Y-118578380D01*
X80414761Y-118721238D01*
X80319523Y-118816476D01*
X80224285Y-118864095D01*
X121252380Y-92813095D02*
X120252380Y-92813095D01*
X120252380Y-92575000D01*
X120300000Y-92432142D01*
X120395238Y-92336904D01*
X120490476Y-92289285D01*
X120680952Y-92241666D01*
X120823809Y-92241666D01*
X121014285Y-92289285D01*
X121109523Y-92336904D01*
X121204761Y-92432142D01*
X121252380Y-92575000D01*
X121252380Y-92813095D01*
X120347619Y-91860714D02*
X120300000Y-91813095D01*
X120252380Y-91717857D01*
X120252380Y-91479761D01*
X120300000Y-91384523D01*
X120347619Y-91336904D01*
X120442857Y-91289285D01*
X120538095Y-91289285D01*
X120680952Y-91336904D01*
X121252380Y-91908333D01*
X121252380Y-91289285D01*
X125583333Y-103202380D02*
X125250000Y-102726190D01*
X125011904Y-103202380D02*
X125011904Y-102202380D01*
X125392857Y-102202380D01*
X125488095Y-102250000D01*
X125535714Y-102297619D01*
X125583333Y-102392857D01*
X125583333Y-102535714D01*
X125535714Y-102630952D01*
X125488095Y-102678571D01*
X125392857Y-102726190D01*
X125011904Y-102726190D01*
X126535714Y-103202380D02*
X125964285Y-103202380D01*
X126250000Y-103202380D02*
X126250000Y-102202380D01*
X126154761Y-102345238D01*
X126059523Y-102440476D01*
X125964285Y-102488095D01*
X117202380Y-101666666D02*
X116726190Y-102000000D01*
X117202380Y-102238095D02*
X116202380Y-102238095D01*
X116202380Y-101857142D01*
X116250000Y-101761904D01*
X116297619Y-101714285D01*
X116392857Y-101666666D01*
X116535714Y-101666666D01*
X116630952Y-101714285D01*
X116678571Y-101761904D01*
X116726190Y-101857142D01*
X116726190Y-102238095D01*
X116297619Y-101285714D02*
X116250000Y-101238095D01*
X116202380Y-101142857D01*
X116202380Y-100904761D01*
X116250000Y-100809523D01*
X116297619Y-100761904D01*
X116392857Y-100714285D01*
X116488095Y-100714285D01*
X116630952Y-100761904D01*
X117202380Y-101333333D01*
X117202380Y-100714285D01*
X121158095Y-108412380D02*
X121158095Y-109221904D01*
X121205714Y-109317142D01*
X121253333Y-109364761D01*
X121348571Y-109412380D01*
X121539047Y-109412380D01*
X121634285Y-109364761D01*
X121681904Y-109317142D01*
X121729523Y-109221904D01*
X121729523Y-108412380D01*
X122729523Y-109412380D02*
X122158095Y-109412380D01*
X122443809Y-109412380D02*
X122443809Y-108412380D01*
X122348571Y-108555238D01*
X122253333Y-108650476D01*
X122158095Y-108698095D01*
X83058095Y-92162380D02*
X83058095Y-92971904D01*
X83105714Y-93067142D01*
X83153333Y-93114761D01*
X83248571Y-93162380D01*
X83439047Y-93162380D01*
X83534285Y-93114761D01*
X83581904Y-93067142D01*
X83629523Y-92971904D01*
X83629523Y-92162380D01*
X84058095Y-92257619D02*
X84105714Y-92210000D01*
X84200952Y-92162380D01*
X84439047Y-92162380D01*
X84534285Y-92210000D01*
X84581904Y-92257619D01*
X84629523Y-92352857D01*
X84629523Y-92448095D01*
X84581904Y-92590952D01*
X84010476Y-93162380D01*
X84629523Y-93162380D01*
X73112380Y-101806190D02*
X73112380Y-101234761D01*
X74112380Y-101520476D02*
X73112380Y-101520476D01*
X73112380Y-100996666D02*
X73112380Y-100377619D01*
X73493333Y-100710952D01*
X73493333Y-100568095D01*
X73540952Y-100472857D01*
X73588571Y-100425238D01*
X73683809Y-100377619D01*
X73921904Y-100377619D01*
X74017142Y-100425238D01*
X74064761Y-100472857D01*
X74112380Y-100568095D01*
X74112380Y-100853809D01*
X74064761Y-100949047D01*
X74017142Y-100996666D01*
X74017142Y-99949047D02*
X74064761Y-99901428D01*
X74112380Y-99949047D01*
X74064761Y-99996666D01*
X74017142Y-99949047D01*
X74112380Y-99949047D01*
X73207619Y-99520476D02*
X73160000Y-99472857D01*
X73112380Y-99377619D01*
X73112380Y-99139523D01*
X73160000Y-99044285D01*
X73207619Y-98996666D01*
X73302857Y-98949047D01*
X73398095Y-98949047D01*
X73540952Y-98996666D01*
X74112380Y-99568095D01*
X74112380Y-98949047D01*
X76922380Y-101806190D02*
X76922380Y-101234761D01*
X77922380Y-101520476D02*
X76922380Y-101520476D01*
X76922380Y-100996666D02*
X76922380Y-100377619D01*
X77303333Y-100710952D01*
X77303333Y-100568095D01*
X77350952Y-100472857D01*
X77398571Y-100425238D01*
X77493809Y-100377619D01*
X77731904Y-100377619D01*
X77827142Y-100425238D01*
X77874761Y-100472857D01*
X77922380Y-100568095D01*
X77922380Y-100853809D01*
X77874761Y-100949047D01*
X77827142Y-100996666D01*
X77827142Y-99949047D02*
X77874761Y-99901428D01*
X77922380Y-99949047D01*
X77874761Y-99996666D01*
X77827142Y-99949047D01*
X77922380Y-99949047D01*
X77922380Y-98949047D02*
X77922380Y-99520476D01*
X77922380Y-99234761D02*
X76922380Y-99234761D01*
X77065238Y-99330000D01*
X77160476Y-99425238D01*
X77208095Y-99520476D01*
X84048333Y-100392666D02*
X84048333Y-99692666D01*
X84281666Y-100192666D01*
X84515000Y-99692666D01*
X84515000Y-100392666D01*
X84848333Y-100392666D02*
X84848333Y-99692666D01*
X85248333Y-100392666D02*
X84948333Y-99992666D01*
X85248333Y-99692666D02*
X84848333Y-100092666D01*
X85515000Y-99759333D02*
X85548333Y-99726000D01*
X85615000Y-99692666D01*
X85781666Y-99692666D01*
X85848333Y-99726000D01*
X85881666Y-99759333D01*
X85915000Y-99826000D01*
X85915000Y-99892666D01*
X85881666Y-99992666D01*
X85481666Y-100392666D01*
X85915000Y-100392666D01*
X86348333Y-99692666D02*
X86415000Y-99692666D01*
X86481666Y-99726000D01*
X86515000Y-99759333D01*
X86548333Y-99826000D01*
X86581666Y-99959333D01*
X86581666Y-100126000D01*
X86548333Y-100259333D01*
X86515000Y-100326000D01*
X86481666Y-100359333D01*
X86415000Y-100392666D01*
X86348333Y-100392666D01*
X86281666Y-100359333D01*
X86248333Y-100326000D01*
X86215000Y-100259333D01*
X86181666Y-100126000D01*
X86181666Y-99959333D01*
X86215000Y-99826000D01*
X86248333Y-99759333D01*
X86281666Y-99726000D01*
X86348333Y-99692666D01*
X86881666Y-100392666D02*
X86881666Y-99692666D01*
X87048333Y-99692666D01*
X87148333Y-99726000D01*
X87215000Y-99792666D01*
X87248333Y-99859333D01*
X87281666Y-99992666D01*
X87281666Y-100092666D01*
X87248333Y-100226000D01*
X87215000Y-100292666D01*
X87148333Y-100359333D01*
X87048333Y-100392666D01*
X86881666Y-100392666D01*
X87515000Y-99692666D02*
X87981666Y-100392666D01*
X87981666Y-99692666D02*
X87515000Y-100392666D01*
X88215000Y-99759333D02*
X88248333Y-99726000D01*
X88315000Y-99692666D01*
X88481666Y-99692666D01*
X88548333Y-99726000D01*
X88581666Y-99759333D01*
X88615000Y-99826000D01*
X88615000Y-99892666D01*
X88581666Y-99992666D01*
X88181666Y-100392666D01*
X88615000Y-100392666D01*
X89248333Y-99692666D02*
X88915000Y-99692666D01*
X88881666Y-100026000D01*
X88915000Y-99992666D01*
X88981666Y-99959333D01*
X89148333Y-99959333D01*
X89215000Y-99992666D01*
X89248333Y-100026000D01*
X89281666Y-100092666D01*
X89281666Y-100259333D01*
X89248333Y-100326000D01*
X89215000Y-100359333D01*
X89148333Y-100392666D01*
X88981666Y-100392666D01*
X88915000Y-100359333D01*
X88881666Y-100326000D01*
X89881666Y-99692666D02*
X89748333Y-99692666D01*
X89681666Y-99726000D01*
X89648333Y-99759333D01*
X89581666Y-99859333D01*
X89548333Y-99992666D01*
X89548333Y-100259333D01*
X89581666Y-100326000D01*
X89615000Y-100359333D01*
X89681666Y-100392666D01*
X89815000Y-100392666D01*
X89881666Y-100359333D01*
X89915000Y-100326000D01*
X89948333Y-100259333D01*
X89948333Y-100092666D01*
X89915000Y-100026000D01*
X89881666Y-99992666D01*
X89815000Y-99959333D01*
X89681666Y-99959333D01*
X89615000Y-99992666D01*
X89581666Y-100026000D01*
X89548333Y-100092666D01*
X90148333Y-99692666D02*
X90381666Y-100392666D01*
X90615000Y-99692666D01*
X91181666Y-100392666D02*
X90848333Y-100392666D01*
X90848333Y-99692666D01*
X91415000Y-100392666D02*
X91415000Y-99692666D01*
X91415000Y-100026000D02*
X91815000Y-100026000D01*
X91815000Y-100392666D02*
X91815000Y-99692666D01*
X92081666Y-99692666D02*
X92548333Y-99692666D01*
X92248333Y-100392666D01*
X84531666Y-102932666D02*
X84531666Y-102232666D01*
X84765000Y-102732666D01*
X84998333Y-102232666D01*
X84998333Y-102932666D01*
X85331666Y-102932666D02*
X85331666Y-102232666D01*
X85731666Y-102932666D02*
X85431666Y-102532666D01*
X85731666Y-102232666D02*
X85331666Y-102632666D01*
X86365000Y-102932666D02*
X86031666Y-102932666D01*
X86031666Y-102232666D01*
X86565000Y-102299333D02*
X86598333Y-102266000D01*
X86665000Y-102232666D01*
X86831666Y-102232666D01*
X86898333Y-102266000D01*
X86931666Y-102299333D01*
X86965000Y-102366000D01*
X86965000Y-102432666D01*
X86931666Y-102532666D01*
X86531666Y-102932666D01*
X86965000Y-102932666D01*
X87565000Y-102232666D02*
X87431666Y-102232666D01*
X87365000Y-102266000D01*
X87331666Y-102299333D01*
X87265000Y-102399333D01*
X87231666Y-102532666D01*
X87231666Y-102799333D01*
X87265000Y-102866000D01*
X87298333Y-102899333D01*
X87365000Y-102932666D01*
X87498333Y-102932666D01*
X87565000Y-102899333D01*
X87598333Y-102866000D01*
X87631666Y-102799333D01*
X87631666Y-102632666D01*
X87598333Y-102566000D01*
X87565000Y-102532666D01*
X87498333Y-102499333D01*
X87365000Y-102499333D01*
X87298333Y-102532666D01*
X87265000Y-102566000D01*
X87231666Y-102632666D01*
X87865000Y-102232666D02*
X88331666Y-102232666D01*
X87865000Y-102932666D01*
X88331666Y-102932666D01*
X88898333Y-102232666D02*
X88765000Y-102232666D01*
X88698333Y-102266000D01*
X88665000Y-102299333D01*
X88598333Y-102399333D01*
X88565000Y-102532666D01*
X88565000Y-102799333D01*
X88598333Y-102866000D01*
X88631666Y-102899333D01*
X88698333Y-102932666D01*
X88831666Y-102932666D01*
X88898333Y-102899333D01*
X88931666Y-102866000D01*
X88965000Y-102799333D01*
X88965000Y-102632666D01*
X88931666Y-102566000D01*
X88898333Y-102532666D01*
X88831666Y-102499333D01*
X88698333Y-102499333D01*
X88631666Y-102532666D01*
X88598333Y-102566000D01*
X88565000Y-102632666D01*
X89565000Y-102466000D02*
X89565000Y-102932666D01*
X89398333Y-102199333D02*
X89231666Y-102699333D01*
X89665000Y-102699333D01*
X89831666Y-102232666D02*
X90065000Y-102932666D01*
X90298333Y-102232666D01*
X90765000Y-102566000D02*
X90531666Y-102566000D01*
X90531666Y-102932666D02*
X90531666Y-102232666D01*
X90865000Y-102232666D01*
X91031666Y-102232666D02*
X91431666Y-102232666D01*
X91231666Y-102932666D02*
X91231666Y-102232666D01*
X91965000Y-102466000D02*
X91965000Y-102932666D01*
X91798333Y-102199333D02*
X91631666Y-102699333D01*
X92065000Y-102699333D01*
X84048333Y-101662666D02*
X84048333Y-100962666D01*
X84281666Y-101462666D01*
X84515000Y-100962666D01*
X84515000Y-101662666D01*
X84848333Y-101662666D02*
X84848333Y-100962666D01*
X85248333Y-101662666D02*
X84948333Y-101262666D01*
X85248333Y-100962666D02*
X84848333Y-101362666D01*
X85515000Y-101029333D02*
X85548333Y-100996000D01*
X85615000Y-100962666D01*
X85781666Y-100962666D01*
X85848333Y-100996000D01*
X85881666Y-101029333D01*
X85915000Y-101096000D01*
X85915000Y-101162666D01*
X85881666Y-101262666D01*
X85481666Y-101662666D01*
X85915000Y-101662666D01*
X86348333Y-100962666D02*
X86415000Y-100962666D01*
X86481666Y-100996000D01*
X86515000Y-101029333D01*
X86548333Y-101096000D01*
X86581666Y-101229333D01*
X86581666Y-101396000D01*
X86548333Y-101529333D01*
X86515000Y-101596000D01*
X86481666Y-101629333D01*
X86415000Y-101662666D01*
X86348333Y-101662666D01*
X86281666Y-101629333D01*
X86248333Y-101596000D01*
X86215000Y-101529333D01*
X86181666Y-101396000D01*
X86181666Y-101229333D01*
X86215000Y-101096000D01*
X86248333Y-101029333D01*
X86281666Y-100996000D01*
X86348333Y-100962666D01*
X86881666Y-101662666D02*
X86881666Y-100962666D01*
X87048333Y-100962666D01*
X87148333Y-100996000D01*
X87215000Y-101062666D01*
X87248333Y-101129333D01*
X87281666Y-101262666D01*
X87281666Y-101362666D01*
X87248333Y-101496000D01*
X87215000Y-101562666D01*
X87148333Y-101629333D01*
X87048333Y-101662666D01*
X86881666Y-101662666D01*
X87515000Y-100962666D02*
X87981666Y-101662666D01*
X87981666Y-100962666D02*
X87515000Y-101662666D01*
X88615000Y-101662666D02*
X88215000Y-101662666D01*
X88415000Y-101662666D02*
X88415000Y-100962666D01*
X88348333Y-101062666D01*
X88281666Y-101129333D01*
X88215000Y-101162666D01*
X88881666Y-101029333D02*
X88915000Y-100996000D01*
X88981666Y-100962666D01*
X89148333Y-100962666D01*
X89215000Y-100996000D01*
X89248333Y-101029333D01*
X89281666Y-101096000D01*
X89281666Y-101162666D01*
X89248333Y-101262666D01*
X88848333Y-101662666D01*
X89281666Y-101662666D01*
X89681666Y-101262666D02*
X89615000Y-101229333D01*
X89581666Y-101196000D01*
X89548333Y-101129333D01*
X89548333Y-101096000D01*
X89581666Y-101029333D01*
X89615000Y-100996000D01*
X89681666Y-100962666D01*
X89815000Y-100962666D01*
X89881666Y-100996000D01*
X89915000Y-101029333D01*
X89948333Y-101096000D01*
X89948333Y-101129333D01*
X89915000Y-101196000D01*
X89881666Y-101229333D01*
X89815000Y-101262666D01*
X89681666Y-101262666D01*
X89615000Y-101296000D01*
X89581666Y-101329333D01*
X89548333Y-101396000D01*
X89548333Y-101529333D01*
X89581666Y-101596000D01*
X89615000Y-101629333D01*
X89681666Y-101662666D01*
X89815000Y-101662666D01*
X89881666Y-101629333D01*
X89915000Y-101596000D01*
X89948333Y-101529333D01*
X89948333Y-101396000D01*
X89915000Y-101329333D01*
X89881666Y-101296000D01*
X89815000Y-101262666D01*
X90148333Y-100962666D02*
X90381666Y-101662666D01*
X90615000Y-100962666D01*
X91181666Y-101662666D02*
X90848333Y-101662666D01*
X90848333Y-100962666D01*
X91415000Y-101662666D02*
X91415000Y-100962666D01*
X91415000Y-101296000D02*
X91815000Y-101296000D01*
X91815000Y-101662666D02*
X91815000Y-100962666D01*
X92481666Y-100962666D02*
X92148333Y-100962666D01*
X92115000Y-101296000D01*
X92148333Y-101262666D01*
X92215000Y-101229333D01*
X92381666Y-101229333D01*
X92448333Y-101262666D01*
X92481666Y-101296000D01*
X92515000Y-101362666D01*
X92515000Y-101529333D01*
X92481666Y-101596000D01*
X92448333Y-101629333D01*
X92381666Y-101662666D01*
X92215000Y-101662666D01*
X92148333Y-101629333D01*
X92115000Y-101596000D01*
X106238095Y-88202380D02*
X106238095Y-89011904D01*
X106285714Y-89107142D01*
X106333333Y-89154761D01*
X106428571Y-89202380D01*
X106619047Y-89202380D01*
X106714285Y-89154761D01*
X106761904Y-89107142D01*
X106809523Y-89011904D01*
X106809523Y-88202380D01*
X107190476Y-88202380D02*
X107809523Y-88202380D01*
X107476190Y-88583333D01*
X107619047Y-88583333D01*
X107714285Y-88630952D01*
X107761904Y-88678571D01*
X107809523Y-88773809D01*
X107809523Y-89011904D01*
X107761904Y-89107142D01*
X107714285Y-89154761D01*
X107619047Y-89202380D01*
X107333333Y-89202380D01*
X107238095Y-89154761D01*
X107190476Y-89107142D01*
X73702380Y-125333333D02*
X74416666Y-125333333D01*
X74559523Y-125380952D01*
X74654761Y-125476190D01*
X74702380Y-125619047D01*
X74702380Y-125714285D01*
X74702380Y-124333333D02*
X74702380Y-124904761D01*
X74702380Y-124619047D02*
X73702380Y-124619047D01*
X73845238Y-124714285D01*
X73940476Y-124809523D01*
X73988095Y-124904761D01*
X143882380Y-123103333D02*
X144596666Y-123103333D01*
X144739523Y-123150952D01*
X144834761Y-123246190D01*
X144882380Y-123389047D01*
X144882380Y-123484285D01*
X143977619Y-122674761D02*
X143930000Y-122627142D01*
X143882380Y-122531904D01*
X143882380Y-122293809D01*
X143930000Y-122198571D01*
X143977619Y-122150952D01*
X144072857Y-122103333D01*
X144168095Y-122103333D01*
X144310952Y-122150952D01*
X144882380Y-122722380D01*
X144882380Y-122103333D01*
X140916666Y-93154761D02*
X141059523Y-93202380D01*
X141297619Y-93202380D01*
X141392857Y-93154761D01*
X141440476Y-93107142D01*
X141488095Y-93011904D01*
X141488095Y-92916666D01*
X141440476Y-92821428D01*
X141392857Y-92773809D01*
X141297619Y-92726190D01*
X141107142Y-92678571D01*
X141011904Y-92630952D01*
X140964285Y-92583333D01*
X140916666Y-92488095D01*
X140916666Y-92392857D01*
X140964285Y-92297619D01*
X141011904Y-92250000D01*
X141107142Y-92202380D01*
X141345238Y-92202380D01*
X141488095Y-92250000D01*
X141821428Y-92202380D02*
X142059523Y-93202380D01*
X142250000Y-92488095D01*
X142440476Y-93202380D01*
X142678571Y-92202380D01*
X143583333Y-93202380D02*
X143011904Y-93202380D01*
X143297619Y-93202380D02*
X143297619Y-92202380D01*
X143202380Y-92345238D01*
X143107142Y-92440476D01*
X143011904Y-92488095D01*
M02*
