M48
; DRILL file {KiCad (5.1.7)-1} date 10/06/20 18:46:48
; FORMAT={-:-/ absolute / metric / decimal}
; #@! TF.CreationDate,2020-10-06T18:46:48+02:00
; #@! TF.GenerationSoftware,Kicad,Pcbnew,(5.1.7)-1
; #@! TF.FileFunction,Plated,1,2,PTH
FMAT,2
METRIC
T1C0.500
T2C0.762
T3C0.800
T4C0.900
T5C1.000
T6C1.100
T7C1.200
T8C2.600
T9C3.200
%
G90
G05
T1
X73.66Y-102.87
X77.47Y-102.87
T2
X73.472Y-76.92
X73.472Y-79.46
X73.472Y-82.0
X73.472Y-84.54
X73.472Y-87.08
X139.766Y-76.92
X139.766Y-79.46
X139.766Y-82.0
X139.766Y-84.54
X139.766Y-87.08
T3
X105.41Y-102.87
X112.91Y-102.87
X129.715Y-125.095
X129.715Y-128.595
X116.84Y-96.52
X116.84Y-106.68
X120.65Y-102.87
X130.81Y-102.87
T4
X116.84Y-90.805
X116.84Y-93.345
T5
X64.135Y-105.41
X65.405Y-92.075
X95.885Y-90.6
X102.87Y-113.03
X104.14Y-96.52
X106.68Y-99.695
X110.49Y-90.805
X111.76Y-96.52
X111.76Y-99.695
X113.03Y-113.03
X132.715Y-112.395
X132.715Y-120.015
X77.47Y-121.92
X77.47Y-127.0
X82.55Y-121.92
X82.55Y-127.0
X134.62Y-99.06
X134.62Y-101.56
X134.62Y-104.06
X149.12Y-99.06
X149.12Y-104.06
T6
X67.31Y-95.25
X67.31Y-110.49
X69.85Y-95.25
X69.85Y-97.79
X69.85Y-110.49
X72.39Y-95.25
X72.39Y-110.49
X74.93Y-95.25
X74.93Y-97.79
X74.93Y-110.49
X77.47Y-95.25
X77.47Y-97.79
X77.47Y-110.49
X80.01Y-95.25
X80.01Y-97.79
X80.01Y-110.49
X82.55Y-95.25
X82.55Y-110.49
X85.09Y-95.25
X85.09Y-110.49
X87.63Y-95.25
X87.63Y-110.49
X90.17Y-95.25
X90.17Y-110.49
X92.71Y-95.25
X92.71Y-110.49
X95.25Y-95.25
X95.25Y-110.49
X97.79Y-95.25
X97.79Y-110.49
X100.33Y-95.25
X100.33Y-97.79
X100.33Y-100.33
X100.33Y-102.87
X100.33Y-105.41
X100.33Y-107.95
X100.33Y-110.49
X119.38Y-129.54
X121.92Y-129.54
X124.46Y-129.54
T7
X148.59Y-119.27
X148.59Y-122.77
X148.59Y-126.27
X88.9Y-122.0
X88.9Y-127.0
X69.85Y-123.19
X69.85Y-126.69
T8
X142.12Y-95.96
X142.12Y-107.16
T9
X154.0Y-74.0
X154.0Y-132.0
X62.0Y-132.25
X62.0Y-74.0
T0
M30
