%FSLAX45Y45*%
G04 Gerber Fmt 4.5, Leading zero omitted, Abs format (unit mm)*
G04 Created by KiCad (PCBNEW (5.1.7)-1) date 2020-10-06 18:46:49*
%MOMM*%
%LPD*%
G01*
G04 APERTURE LIST*
%TA.AperFunction,Profile*%
%ADD10C,0.150000*%
%TD*%
%ADD11C,0.200000*%
%ADD12C,0.300000*%
G04 APERTURE END LIST*
D10*
X5800000Y-13600000D02*
X5800000Y-7000000D01*
X15800000Y-13600000D02*
X5800000Y-13600000D01*
X15800000Y-7000000D02*
X15800000Y-13600000D01*
X5800000Y-7000000D02*
X15800000Y-7000000D01*
D11*
X12017000Y-11113000D02*
X12367000Y-11463000D01*
X12367000Y-11113000D02*
X12017000Y-11463000D01*
D12*
X6078928Y-14073214D02*
X6078928Y-13773214D01*
X6150357Y-13773214D01*
X6193214Y-13787500D01*
X6221786Y-13816071D01*
X6236071Y-13844643D01*
X6250357Y-13901786D01*
X6250357Y-13944643D01*
X6236071Y-14001786D01*
X6221786Y-14030357D01*
X6193214Y-14058929D01*
X6150357Y-14073214D01*
X6078928Y-14073214D01*
X6378928Y-14073214D02*
X6378928Y-13873214D01*
X6378928Y-13930357D02*
X6393214Y-13901786D01*
X6407500Y-13887500D01*
X6436071Y-13873214D01*
X6464643Y-13873214D01*
X6564643Y-14073214D02*
X6564643Y-13873214D01*
X6564643Y-13773214D02*
X6550357Y-13787500D01*
X6564643Y-13801786D01*
X6578928Y-13787500D01*
X6564643Y-13773214D01*
X6564643Y-13801786D01*
X6750357Y-14073214D02*
X6721786Y-14058929D01*
X6707500Y-14030357D01*
X6707500Y-13773214D01*
X6907500Y-14073214D02*
X6878928Y-14058929D01*
X6864643Y-14030357D01*
X6864643Y-13773214D01*
X7250357Y-14073214D02*
X7250357Y-13773214D01*
X7350357Y-13987500D01*
X7450357Y-13773214D01*
X7450357Y-14073214D01*
X7721786Y-14073214D02*
X7721786Y-13916071D01*
X7707500Y-13887500D01*
X7678928Y-13873214D01*
X7621786Y-13873214D01*
X7593214Y-13887500D01*
X7721786Y-14058929D02*
X7693214Y-14073214D01*
X7621786Y-14073214D01*
X7593214Y-14058929D01*
X7578928Y-14030357D01*
X7578928Y-14001786D01*
X7593214Y-13973214D01*
X7621786Y-13958929D01*
X7693214Y-13958929D01*
X7721786Y-13944643D01*
X7864643Y-13873214D02*
X7864643Y-14173214D01*
X7864643Y-13887500D02*
X7893214Y-13873214D01*
X7950357Y-13873214D01*
X7978928Y-13887500D01*
X7993214Y-13901786D01*
X8007500Y-13930357D01*
X8007500Y-14016071D01*
X7993214Y-14044643D01*
X7978928Y-14058929D01*
X7950357Y-14073214D01*
X7893214Y-14073214D01*
X7864643Y-14058929D01*
X8136071Y-14044643D02*
X8150357Y-14058929D01*
X8136071Y-14073214D01*
X8121786Y-14058929D01*
X8136071Y-14044643D01*
X8136071Y-14073214D01*
X8136071Y-13887500D02*
X8150357Y-13901786D01*
X8136071Y-13916071D01*
X8121786Y-13901786D01*
X8136071Y-13887500D01*
X8136071Y-13916071D01*
X5442500Y-14392500D02*
X5792500Y-14742500D01*
X5792500Y-14392500D02*
X5442500Y-14742500D01*
X6050357Y-14403214D02*
X6236071Y-14403214D01*
X6136071Y-14517500D01*
X6178928Y-14517500D01*
X6207500Y-14531786D01*
X6221786Y-14546071D01*
X6236071Y-14574643D01*
X6236071Y-14646071D01*
X6221786Y-14674643D01*
X6207500Y-14688929D01*
X6178928Y-14703214D01*
X6093214Y-14703214D01*
X6064643Y-14688929D01*
X6050357Y-14674643D01*
X6364643Y-14674643D02*
X6378928Y-14688929D01*
X6364643Y-14703214D01*
X6350357Y-14688929D01*
X6364643Y-14674643D01*
X6364643Y-14703214D01*
X6650357Y-14403214D02*
X6507500Y-14403214D01*
X6493214Y-14546071D01*
X6507500Y-14531786D01*
X6536071Y-14517500D01*
X6607500Y-14517500D01*
X6636071Y-14531786D01*
X6650357Y-14546071D01*
X6664643Y-14574643D01*
X6664643Y-14646071D01*
X6650357Y-14674643D01*
X6636071Y-14688929D01*
X6607500Y-14703214D01*
X6536071Y-14703214D01*
X6507500Y-14688929D01*
X6493214Y-14674643D01*
X6850357Y-14403214D02*
X6878928Y-14403214D01*
X6907500Y-14417500D01*
X6921786Y-14431786D01*
X6936071Y-14460357D01*
X6950357Y-14517500D01*
X6950357Y-14588929D01*
X6936071Y-14646071D01*
X6921786Y-14674643D01*
X6907500Y-14688929D01*
X6878928Y-14703214D01*
X6850357Y-14703214D01*
X6821786Y-14688929D01*
X6807500Y-14674643D01*
X6793214Y-14646071D01*
X6778928Y-14588929D01*
X6778928Y-14517500D01*
X6793214Y-14460357D01*
X6807500Y-14431786D01*
X6821786Y-14417500D01*
X6850357Y-14403214D01*
X7078928Y-14703214D02*
X7078928Y-14503214D01*
X7078928Y-14531786D02*
X7093214Y-14517500D01*
X7121786Y-14503214D01*
X7164643Y-14503214D01*
X7193214Y-14517500D01*
X7207500Y-14546071D01*
X7207500Y-14703214D01*
X7207500Y-14546071D02*
X7221786Y-14517500D01*
X7250357Y-14503214D01*
X7293214Y-14503214D01*
X7321786Y-14517500D01*
X7336071Y-14546071D01*
X7336071Y-14703214D01*
X7478928Y-14703214D02*
X7478928Y-14503214D01*
X7478928Y-14531786D02*
X7493214Y-14517500D01*
X7521786Y-14503214D01*
X7564643Y-14503214D01*
X7593214Y-14517500D01*
X7607500Y-14546071D01*
X7607500Y-14703214D01*
X7607500Y-14546071D02*
X7621786Y-14517500D01*
X7650357Y-14503214D01*
X7693214Y-14503214D01*
X7721786Y-14517500D01*
X7736071Y-14546071D01*
X7736071Y-14703214D01*
X8321786Y-14388929D02*
X8064643Y-14774643D01*
X8707500Y-14403214D02*
X8736071Y-14403214D01*
X8764643Y-14417500D01*
X8778928Y-14431786D01*
X8793214Y-14460357D01*
X8807500Y-14517500D01*
X8807500Y-14588929D01*
X8793214Y-14646071D01*
X8778928Y-14674643D01*
X8764643Y-14688929D01*
X8736071Y-14703214D01*
X8707500Y-14703214D01*
X8678928Y-14688929D01*
X8664643Y-14674643D01*
X8650357Y-14646071D01*
X8636071Y-14588929D01*
X8636071Y-14517500D01*
X8650357Y-14460357D01*
X8664643Y-14431786D01*
X8678928Y-14417500D01*
X8707500Y-14403214D01*
X8936071Y-14674643D02*
X8950357Y-14688929D01*
X8936071Y-14703214D01*
X8921786Y-14688929D01*
X8936071Y-14674643D01*
X8936071Y-14703214D01*
X9236071Y-14703214D02*
X9064643Y-14703214D01*
X9150357Y-14703214D02*
X9150357Y-14403214D01*
X9121786Y-14446071D01*
X9093214Y-14474643D01*
X9064643Y-14488929D01*
X9336071Y-14403214D02*
X9521786Y-14403214D01*
X9421786Y-14517500D01*
X9464643Y-14517500D01*
X9493214Y-14531786D01*
X9507500Y-14546071D01*
X9521786Y-14574643D01*
X9521786Y-14646071D01*
X9507500Y-14674643D01*
X9493214Y-14688929D01*
X9464643Y-14703214D01*
X9378928Y-14703214D01*
X9350357Y-14688929D01*
X9336071Y-14674643D01*
X9693214Y-14531786D02*
X9664643Y-14517500D01*
X9650357Y-14503214D01*
X9636071Y-14474643D01*
X9636071Y-14460357D01*
X9650357Y-14431786D01*
X9664643Y-14417500D01*
X9693214Y-14403214D01*
X9750357Y-14403214D01*
X9778928Y-14417500D01*
X9793214Y-14431786D01*
X9807500Y-14460357D01*
X9807500Y-14474643D01*
X9793214Y-14503214D01*
X9778928Y-14517500D01*
X9750357Y-14531786D01*
X9693214Y-14531786D01*
X9664643Y-14546071D01*
X9650357Y-14560357D01*
X9636071Y-14588929D01*
X9636071Y-14646071D01*
X9650357Y-14674643D01*
X9664643Y-14688929D01*
X9693214Y-14703214D01*
X9750357Y-14703214D01*
X9778928Y-14688929D01*
X9793214Y-14674643D01*
X9807500Y-14646071D01*
X9807500Y-14588929D01*
X9793214Y-14560357D01*
X9778928Y-14546071D01*
X9750357Y-14531786D01*
X9921786Y-14403214D02*
X9921786Y-14460357D01*
X10036071Y-14403214D02*
X10036071Y-14460357D01*
X10478928Y-14817500D02*
X10464643Y-14803214D01*
X10436071Y-14760357D01*
X10421786Y-14731786D01*
X10407500Y-14688929D01*
X10393214Y-14617500D01*
X10393214Y-14560357D01*
X10407500Y-14488929D01*
X10421786Y-14446071D01*
X10436071Y-14417500D01*
X10464643Y-14374643D01*
X10478928Y-14360357D01*
X10750357Y-14703214D02*
X10578928Y-14703214D01*
X10664643Y-14703214D02*
X10664643Y-14403214D01*
X10636071Y-14446071D01*
X10607500Y-14474643D01*
X10578928Y-14488929D01*
X11107500Y-14703214D02*
X11107500Y-14403214D01*
X11236071Y-14703214D02*
X11236071Y-14546071D01*
X11221786Y-14517500D01*
X11193214Y-14503214D01*
X11150357Y-14503214D01*
X11121786Y-14517500D01*
X11107500Y-14531786D01*
X11421786Y-14703214D02*
X11393214Y-14688929D01*
X11378928Y-14674643D01*
X11364643Y-14646071D01*
X11364643Y-14560357D01*
X11378928Y-14531786D01*
X11393214Y-14517500D01*
X11421786Y-14503214D01*
X11464643Y-14503214D01*
X11493214Y-14517500D01*
X11507500Y-14531786D01*
X11521786Y-14560357D01*
X11521786Y-14646071D01*
X11507500Y-14674643D01*
X11493214Y-14688929D01*
X11464643Y-14703214D01*
X11421786Y-14703214D01*
X11693214Y-14703214D02*
X11664643Y-14688929D01*
X11650357Y-14660357D01*
X11650357Y-14403214D01*
X11921786Y-14688929D02*
X11893214Y-14703214D01*
X11836071Y-14703214D01*
X11807500Y-14688929D01*
X11793214Y-14660357D01*
X11793214Y-14546071D01*
X11807500Y-14517500D01*
X11836071Y-14503214D01*
X11893214Y-14503214D01*
X11921786Y-14517500D01*
X11936071Y-14546071D01*
X11936071Y-14574643D01*
X11793214Y-14603214D01*
X12036071Y-14817500D02*
X12050357Y-14803214D01*
X12078928Y-14760357D01*
X12093214Y-14731786D01*
X12107500Y-14688929D01*
X12121786Y-14617500D01*
X12121786Y-14560357D01*
X12107500Y-14488929D01*
X12093214Y-14446071D01*
X12078928Y-14417500D01*
X12050357Y-14374643D01*
X12036071Y-14360357D01*
X12578928Y-14817500D02*
X12564643Y-14803214D01*
X12536071Y-14760357D01*
X12521786Y-14731786D01*
X12507500Y-14688929D01*
X12493214Y-14617500D01*
X12493214Y-14560357D01*
X12507500Y-14488929D01*
X12521786Y-14446071D01*
X12536071Y-14417500D01*
X12564643Y-14374643D01*
X12578928Y-14360357D01*
X12693214Y-14503214D02*
X12693214Y-14703214D01*
X12693214Y-14531786D02*
X12707500Y-14517500D01*
X12736071Y-14503214D01*
X12778928Y-14503214D01*
X12807500Y-14517500D01*
X12821786Y-14546071D01*
X12821786Y-14703214D01*
X13007500Y-14703214D02*
X12978928Y-14688929D01*
X12964643Y-14674643D01*
X12950357Y-14646071D01*
X12950357Y-14560357D01*
X12964643Y-14531786D01*
X12978928Y-14517500D01*
X13007500Y-14503214D01*
X13050357Y-14503214D01*
X13078928Y-14517500D01*
X13093214Y-14531786D01*
X13107500Y-14560357D01*
X13107500Y-14646071D01*
X13093214Y-14674643D01*
X13078928Y-14688929D01*
X13050357Y-14703214D01*
X13007500Y-14703214D01*
X13193214Y-14503214D02*
X13307500Y-14503214D01*
X13236071Y-14403214D02*
X13236071Y-14660357D01*
X13250357Y-14688929D01*
X13278928Y-14703214D01*
X13307500Y-14703214D01*
X13636071Y-14503214D02*
X13636071Y-14803214D01*
X13636071Y-14517500D02*
X13664643Y-14503214D01*
X13721786Y-14503214D01*
X13750357Y-14517500D01*
X13764643Y-14531786D01*
X13778928Y-14560357D01*
X13778928Y-14646071D01*
X13764643Y-14674643D01*
X13750357Y-14688929D01*
X13721786Y-14703214D01*
X13664643Y-14703214D01*
X13636071Y-14688929D01*
X13950357Y-14703214D02*
X13921786Y-14688929D01*
X13907500Y-14660357D01*
X13907500Y-14403214D01*
X14193214Y-14703214D02*
X14193214Y-14546071D01*
X14178928Y-14517500D01*
X14150357Y-14503214D01*
X14093214Y-14503214D01*
X14064643Y-14517500D01*
X14193214Y-14688929D02*
X14164643Y-14703214D01*
X14093214Y-14703214D01*
X14064643Y-14688929D01*
X14050357Y-14660357D01*
X14050357Y-14631786D01*
X14064643Y-14603214D01*
X14093214Y-14588929D01*
X14164643Y-14588929D01*
X14193214Y-14574643D01*
X14293214Y-14503214D02*
X14407500Y-14503214D01*
X14336071Y-14403214D02*
X14336071Y-14660357D01*
X14350357Y-14688929D01*
X14378928Y-14703214D01*
X14407500Y-14703214D01*
X14621786Y-14688929D02*
X14593214Y-14703214D01*
X14536071Y-14703214D01*
X14507500Y-14688929D01*
X14493214Y-14660357D01*
X14493214Y-14546071D01*
X14507500Y-14517500D01*
X14536071Y-14503214D01*
X14593214Y-14503214D01*
X14621786Y-14517500D01*
X14636071Y-14546071D01*
X14636071Y-14574643D01*
X14493214Y-14603214D01*
X14893214Y-14703214D02*
X14893214Y-14403214D01*
X14893214Y-14688929D02*
X14864643Y-14703214D01*
X14807500Y-14703214D01*
X14778928Y-14688929D01*
X14764643Y-14674643D01*
X14750357Y-14646071D01*
X14750357Y-14560357D01*
X14764643Y-14531786D01*
X14778928Y-14517500D01*
X14807500Y-14503214D01*
X14864643Y-14503214D01*
X14893214Y-14517500D01*
X15007500Y-14817500D02*
X15021786Y-14803214D01*
X15050357Y-14760357D01*
X15064643Y-14731786D01*
X15078928Y-14688929D01*
X15093214Y-14617500D01*
X15093214Y-14560357D01*
X15078928Y-14488929D01*
X15064643Y-14446071D01*
X15050357Y-14417500D01*
X15021786Y-14374643D01*
X15007500Y-14360357D01*
M02*
